<?xml version="1.0" encoding="utf-8"?>
<!-- Generator: Adobe Illustrator 18.0.0, SVG Export Plug-In . SVG Version: 6.00 Build 0)  -->
<!DOCTYPE svg PUBLIC "-//W3C//DTD SVG 1.1//EN" "http://www.w3.org/Graphics/SVG/1.1/DTD/svg11.dtd">
<svg version="1.1" id="Layer_1" xmlns="http://www.w3.org/2000/svg" xmlns:xlink="http://www.w3.org/1999/xlink" x="0px" y="0px"
	 viewBox="0 0 1700 1400" enable-background="new 0 0 1700 1400" xml:space="preserve">
<g>
	<defs>
		<rect id="SVGID_5_" width="1700" height="1400"/>
	</defs>
	<clipPath id="SVGID_2_">
		<use xlink:href="#SVGID_5_"  overflow="visible"/>
	</clipPath>
	<g clip-path="url(#SVGID_2_)">
		<path fill="#FFBECF" d="M97.5,350c40.7-63.3,28.1-155.4-28-205.5c-20.2-18.1-44-30.3-69.5-38.9v311.9
			C39.4,407.8,75.5,384.2,97.5,350z"/>
		<path fill="#D5FFFF" d="M268.6,481.9c27.1-12.9,48.5-43.1,41.2-72.2c-11.5-45.8-81.3-59.1-89.1-105.6c-5-30.1,21-57.9,49.9-67.6
			c28.9-9.7,60.3-6.5,90.8-6.9C507.4,228,646.3,132.2,706,0H527.4c-49.7,59.6-126,97.6-203.9,96.4C248.3,95.2,175.7,57.6,127.7,0H0
			v105.6c25.5,8.6,49.3,20.8,69.5,38.9c56.1,50.1,68.6,142.2,28,205.5c-22,34.2-58.1,57.8-97.5,67.5v74.7
			c60.1,0.7,120.2,1.5,180.3,2.2C210.3,494.7,241.5,494.8,268.6,481.9z"/>
		<path fill="#CFABCE" d="M269.9,675.5c50-24.7,106.7-42.8,161.2-30.7c54.4,12.1,103.1,63.3,95.6,118.6
			c-5.5,40.5-37.7,72.2-50.9,110.9c-0.9,2.6-1.7,5.2-2.4,7.9c57.4,18.6,123.1,17.1,180.6-3c97.6-34.1,174.2-111.7,233.4-196.5
			c59.2-84.8,104.4-178.6,162.3-264.3C1181.2,223.2,1379.7,75.2,1602.5,0h-353.3C1117,68.9,1005.7,178.5,938,311.6
			c-41.8,82.1-69.4,174.8-135.2,239.3c-62.5,61.3-156.5,88.7-242.2,70.7c-72.4-15.3-137.2-62.6-175.1-126
			c-28.1,10.4-56.7,19.6-85.2,28.7c-68.6,22-138.2,44.7-197.5,85.6C58.2,640.7,19.5,683.5,0,733.5v206.7
			C59.2,826.7,155,732.4,269.9,675.5z M1027.9,259c5.5-15.8,17.8-28.7,32.5-36.8c8.6-4.7,18.1-7.9,27.9-7.8
			c9.8,0.1,19.7,3.8,26.1,11.2c7.1,8.1,9.2,19.8,7.7,30.5c-1.5,10.7-6.2,20.7-11.2,30.3c-7.3,13.8-16.5,28.1-31.1,33.6
			c-15.6,6-34.5-0.4-44.9-13.5C1024.5,293.5,1022.4,274.8,1027.9,259z M869.9,504.2c7.3-11.6,18-20.7,28.4-29.6
			c10.4-8.9,21-18,28.2-29.7c7.5-12.3,10.8-26.6,16.3-39.9c5.5-13.3,14.1-26.6,27.6-31.6c13.5-5.1,31.9,2.3,33.7,16.6
			c1,8.4-3.6,16.4-8.1,23.6c-26.1,42.1-52.1,84.2-78.2,126.3c-5.4,8.8-11.7,18.2-21.5,21.5c-13,4.3-27.9-5-32.7-17.9
			S862.5,515.8,869.9,504.2z M628.5,676.5c23.3-9,48.9-9.1,73.9-11.1c24.9-1.9,51-6.4,70.4-22.2c8.8-7.2,15.9-16.5,25.2-23.1
			c9.3-6.6,22.2-10.2,32-4.5c9,5.2,12.7,16.8,11.3,27.1s-6.9,19.5-12.8,28.1c-29.2,42.7-69.8,77.6-116.5,100
			c-24.2,11.6-51.3,20-77.7,14.8c-26.3-5.2-50.6-27.6-50.3-54.4C584.3,706.3,605.2,685.5,628.5,676.5z"/>
		<path fill="#FFCFE2" d="M1559.8,145.9c4.7,31.2,33.4,53,62.2,65.8c24.7,11,51.1,17.9,78,20.6V28.7c-29.7,4.4-58.5,14.3-84.4,29.5
			C1583.9,76.9,1554.3,109.4,1559.8,145.9z"/>
		<path fill="#FFCFE2" d="M706,0c-59.7,132.2-198.6,228-344.6,229.7c-30.5,0.4-61.9-2.8-90.8,6.9c-28.9,9.7-55,37.5-49.9,67.6
			c7.8,46.6,77.5,59.8,89.1,105.6c7.3,29.1-14.1,59.2-41.2,72.2c-27.1,12.9-58.3,12.8-88.3,12.4c-60.1-0.7-120.2-1.5-180.3-2.2
			v241.3c19.5-49.9,58.2-92.8,102.8-123.6c59.3-40.9,128.9-63.6,197.5-85.6c28.5-9.1,57.1-18.3,85.2-28.7
			c26-9.7,51.5-20.4,75.9-33.3c-21.4-12.7-42.1-27.7-56.1-48.3c-14.2-20.9-20.7-48.4-11.6-72c3.6-9.5,9.6-18,17.3-24.6
			c22.2-19.2,56.5-20,82.9-7.1c26.4,12.9,45.7,37.2,59,63.4c2.7,5.4,5.3,11,7.4,16.7c86-82.3,145.4-193.7,230.9-278.6
			C837.6,65.7,891.9,28,950.7,0H706z"/>
		<path fill="#FFE1CE" d="M788.1,305c-25.8,45.3-48.5,94.9-90.1,126.4c-38.6,29.2-91.2,38.9-137.7,25.3c-0.3-0.1-0.7-0.2-1-0.3
			c-4.4,7.7-10.5,14.3-18.2,18.7c-24.2,13.6-54.6,2-78.6-12.1c-0.3-0.2-0.7-0.4-1-0.6c-24.4,12.9-49.9,23.6-75.9,33.3
			c37.9,63.4,102.6,110.8,175.1,126c85.7,18.1,179.6-9.4,242.2-70.7c65.8-64.5,93.4-157.2,135.2-239.3
			c67.7-133,179-242.6,311.2-311.6h-155.1C967.3,71.7,860.1,178.2,788.1,305z"/>
		<path fill="#FFE1CE" d="M323.5,96.4C401.4,97.6,477.7,59.6,527.4,0H127.7C175.7,57.6,248.3,95.2,323.5,96.4z"/>
		<path fill="#FFBECF" d="M1049.6,418.3c-57.8,85.7-103.1,179.5-162.3,264.3c-59.2,84.8-135.8,162.4-233.4,196.5
			c-57.5,20.1-123.2,21.6-180.6,3c-13,49.5,8.3,102.2,45.9,138.8c101.5-12.3,197.6-71.1,271.8-144.2
			c93.6-92.3,161.7-206.9,243.8-309.5c95.7-119.6,215-225.5,359.4-276.8c97.4-34.6,207.4-40.9,305.8-12.3v-46
			c-26.9-2.7-53.3-9.6-78-20.6c-28.8-12.8-57.5-34.6-62.2-65.8c-5.5-36.4,24.1-69,55.8-87.7c25.8-15.2,54.7-25.1,84.4-29.5V0h-97.5
			C1379.7,75.2,1181.2,223.2,1049.6,418.3z M1378.6,185.5c5.8-15.6,19.8-27.3,35.5-33c15.7-5.7,32.9-6,49.4-4
			c9.4,1.1,18.9,3.1,26.8,8.3c7.9,5.2,13.8,14.2,13,23.6c-0.5,6.3-4,12.1-8.2,16.9c-8,9.3-18.7,15.8-29.2,22.2
			c-11.7,7.1-23.6,14.3-36.9,17.6c-13.3,3.3-28.4,2.2-39.2-6.2C1376.7,220.6,1372.8,201.1,1378.6,185.5z M1284.7,240.6
			c11.2-10,28.4-17.9,40.6-9.2c11.5,8.2,10.6,25.9,4.5,38.6c-5.6,11.7-15.4,22.2-28,25.5c-12.6,3.3-27.8-2.2-32.8-14.3
			C1263.2,266.9,1273.2,251,1284.7,240.6z"/>
		<path fill="#FFBECF" d="M560.4,390.3c4.5,12,7.3,24.6,6.8,37.4c-0.4,9.9-3.1,20-7.9,28.6c0.3,0.1,0.7,0.2,1,0.3
			c46.4,13.6,99.1,4,137.7-25.3c41.6-31.5,64.3-81,90.1-126.4c72-126.8,179.1-233.2,306-305H950.7c-58.9,28-113.1,65.7-159.4,111.7
			C705.8,196.6,646.4,308,560.4,390.3z"/>
		<path fill="#FFCFE2" d="M1520.1,609.6c-36.7,2.2-73.9,7.3-110,0.4c-36.1-6.9-72.1-29.1-83.2-64.2c-13.1-41.7,12.5-85.9,43.4-116.8
			c56.6-56.5,135.3-90.2,215.2-92.3c38.9-1,77.9,5.5,114.5,18.6v-77.2c-98.3-28.6-208.4-22.3-305.8,12.3
			c-144.3,51.3-263.6,157.2-359.4,276.8C952.7,670,884.7,784.5,791.1,876.8c-74.2,73.1-170.3,132-271.8,144.2
			c18.3,17.8,40.5,31.8,64.4,39.8c75.8,25.3,160.2,2.7,229.9-36.4c46.3-25.9,88.2-58.6,130.5-90.8c-21.2-10.9-36-32.7-39.9-56.3
			c-2.5-14.9-0.4-31.3,9.1-43c15.1-18.5,43.5-19.3,66.5-12.7c21.5,6.2,42.8,18.8,51.9,39.3c1.2,2.8,2.2,5.6,2.9,8.6
			c16.4-10.3,33.2-20,50.4-29c-4.4-7-7.5-14.8-8.6-23.2c-6.1-43.9,37.5-77.4,77.3-96.8c168.1-82,367.5-97,546.3-42.7v-54.2
			C1641,610.8,1580.3,606.1,1520.1,609.6z M1272.8,611.4c-13.1,14.1-30.8,22.6-48.2,30.9c-19.3,9.2-38.6,18.4-57.9,27.6
			c-14.4,6.9-30.1,13.9-45.8,11c-17.6-3.3-31.1-19.4-34.1-37c-3.1-17.6,3.1-35.9,13.7-50.3c10.6-14.3,25.4-25.1,40.9-34
			c19.1-10.9,39.5-19.3,60.8-25c15.4-4.1,31.6-6.7,47.2-3.6c15.6,3.1,30.6,12.8,36.6,27.6C1293.2,576.3,1285.8,597.3,1272.8,611.4z"
			/>
		<path fill="#CFABCE" d="M1457.4,924.1c-145.4-40-303.2-10.7-439.8,53.1c-135.6,63.3-260.2,160.9-408.8,178.7
			c-82.1,9.8-166.3-5.9-247.6,8.9C240.3,1186.9,138.5,1283.6,102,1400h134.6c26.3-37.9,63.5-69.4,104.4-91.4
			c71.8-38.7,154.1-52.6,234.9-63.8c80.8-11.2,163.1-20.4,238.7-51c52-21,99.5-51.7,150.3-75.3s107.5-40.2,162.7-30.5
			c55.2,9.7,107.6,51.5,115.1,107c8.9,66.2-44.6,123.8-98.8,162.8c-21.1,15.2-42.9,29.2-65.5,42.1H1700v-305.8
			C1643.7,1012.2,1554.3,950.7,1457.4,924.1z M1623,1232.8c-5.9,30.7-19.9,60.5-43.3,81.2c-37.9,33.7-96.7,38.2-142.5,16.5
			c-45.8-21.7-78.3-66.4-91.9-115.2c-9.3-33.3-10.3-69.7,2.6-101.7c18.4-45.8,65.4-77.8,114.7-81.1s98.8,20.9,128.9,60.1
			C1621.6,1131.7,1632.3,1184.4,1623,1232.8z"/>
		<path fill="#FFE1CE" d="M1249.3,868.1c-33.3,6-67.1,14.9-100.6,10.3c-25.1-3.5-50.5-17.2-63.6-37.9c-17.1,9.1-33.9,18.7-50.4,29
			c5,20.6-3,44.1-19.6,57.7c-18.9,15.5-47.1,17.9-69.2,7.3c-0.6-0.3-1.2-0.6-1.7-0.9c-42.3,32.2-84.2,64.9-130.5,90.8
			c-69.7,39-154.1,61.6-229.9,36.4c-24-8-46.1-22-64.4-39.8c-37.6-36.6-59-89.3-45.9-138.8c0.7-2.6,1.5-5.2,2.4-7.9
			c13.2-38.7,45.4-70.4,50.9-110.9c7.5-55.3-41.1-106.4-95.6-118.6c-54.4-12.1-111.2,5.9-161.2,30.7C155,732.4,59.2,826.7,0,940.2
			V1183c46.1-151,130.7-290.2,244-400.2c33.6-32.6,72.3-64,118.7-70.1c46.4-6.1,100.1,23.6,103.9,70.2c2.5,31-15.8,56.9-39.7,78.5
			c-12.7,11.5-27,21.8-40.7,31c-39.5,26.6-83.3,64.3-76.2,111.4c3.4,22.7,18.7,42.7,19.7,65.6c1.1,28.1-20.2,52.9-44.9,66.5
			c-24.7,13.6-52.9,18.8-79.6,28C131.6,1189.1,69.5,1246,37.9,1317c-11.7,26.3-19.1,54.4-22.3,83H102
			c36.5-116.4,138.2-213.1,259.1-235.2c81.4-14.9,165.5,0.9,247.6-8.9c148.5-17.8,273.2-115.4,408.8-178.7
			c136.7-63.8,294.4-93,439.8-53.1c96.9,26.6,186.3,88.1,242.6,170.1V970.8C1571.1,879.4,1405.1,840,1249.3,868.1z"/>
		<path fill="#CEF3D0" d="M1153.7,720.4c-39.8,19.4-83.4,53-77.3,96.8c1.2,8.5,4.2,16.2,8.6,23.2c13.1,20.7,38.5,34.4,63.6,37.9
			c33.6,4.7,67.3-4.2,100.6-10.3c155.8-28.1,321.8,11.2,450.7,102.6V769.5v-91.8C1521.2,623.4,1321.8,638.4,1153.7,720.4z"/>
		<path fill="#CEF3D0" d="M466.6,783c-3.8-46.6-57.5-76.3-103.9-70.2c-46.4,6.1-85.2,37.5-118.7,70.1C130.7,892.8,46.1,1032,0,1183
			v217h15.6c3.2-28.6,10.6-56.7,22.3-83c31.6-71,93.7-127.9,167.2-153.1c26.6-9.1,54.9-14.4,79.6-28c24.7-13.6,46-38.3,44.9-66.5
			c-0.9-22.9-16.3-42.9-19.7-65.6c-7.1-47.1,36.7-84.8,76.2-111.4c13.7-9.2,28-19.5,40.7-31C450.8,839.8,469.1,814,466.6,783z"/>
		<path fill="#D5FFFF" d="M1585.5,336.8c-79.9,2.1-158.6,35.8-215.2,92.3c-31,30.9-56.6,75.1-43.4,116.8
			c11.1,35.1,47.1,57.3,83.2,64.2c36.1,6.9,73.3,1.8,110-0.4c60.2-3.6,120.9,1.2,179.9,13.9V355.4
			C1663.4,342.3,1624.4,335.8,1585.5,336.8z"/>
		<path fill="#FFCFE2" d="M1242.8,1195c-7.5-55.6-59.9-97.3-115.1-107c-55.2-9.7-111.9,6.9-162.7,30.5s-98.4,54.2-150.3,75.3
			c-75.6,30.6-157.9,39.9-238.7,51c-80.8,11.2-163.1,25.1-234.9,63.8c-40.8,22-78.1,53.4-104.4,91.4h841.8
			c22.5-12.9,44.4-26.9,65.5-42.1C1198.1,1318.8,1251.7,1261.3,1242.8,1195z"/>
		<path fill="#D5FFFF" d="M1462.6,1032.5c-49.3,3.3-96.3,35.3-114.7,81.1c-12.9,32-11.9,68.5-2.6,101.7
			c13.6,48.8,46.1,93.5,91.9,115.2c45.8,21.7,104.6,17.2,142.5-16.5c23.3-20.7,37.4-50.5,43.3-81.2c9.3-48.5-1.4-101.1-31.5-140.3
			C1561.5,1053.4,1511.9,1029.2,1462.6,1032.5z"/>
		<path fill="#CEF3D0" d="M1034.7,869.5c-0.7-2.9-1.7-5.8-2.9-8.6c-9.1-20.5-30.4-33.1-51.9-39.3c-23-6.6-51.3-5.8-66.5,12.7
			c-9.6,11.7-11.6,28.1-9.1,43c3.9,23.5,18.7,45.4,39.9,56.3c0.6,0.3,1.1,0.6,1.7,0.9c22.1,10.6,50.3,8.2,69.2-7.3
			C1031.6,913.6,1039.7,890.2,1034.7,869.5z"/>
		<path fill="#D5FFFF" d="M560.4,390.3c-2.1-5.7-4.7-11.3-7.4-16.7c-13.3-26.2-32.6-50.5-59-63.4c-26.4-12.9-60.7-12.1-82.9,7.1
			c-7.7,6.6-13.7,15.2-17.3,24.6c-9.1,23.6-2.6,51.1,11.6,72c14,20.6,34.7,35.6,56.1,48.3c0.3,0.2,0.7,0.4,1,0.6
			c24,14.1,54.3,25.7,78.6,12.1c7.8-4.4,13.9-11,18.2-18.7c4.9-8.6,7.6-18.7,7.9-28.6C567.8,414.9,564.9,402.3,560.4,390.3z"/>
		<path fill="#D5FFFF" d="M1249.4,530.9c-15.6-3.1-31.8-0.5-47.2,3.6c-21.2,5.6-41.7,14.1-60.8,25c-15.5,8.9-30.3,19.6-40.9,34
			c-10.6,14.3-16.8,32.7-13.7,50.3c3.1,17.6,16.6,33.7,34.1,37c15.7,3,31.4-4.1,45.8-11c19.3-9.2,38.6-18.4,57.9-27.6
			c17.3-8.3,35.1-16.8,48.2-30.9c13.1-14.1,20.5-35.1,13.2-52.9C1280,543.7,1265,534,1249.4,530.9z"/>
		<path fill="#FFCFE2" d="M1389.9,230.8c10.8,8.4,25.9,9.5,39.2,6.2c13.3-3.3,25.2-10.5,36.9-17.6c10.5-6.4,21.2-12.9,29.2-22.2
			c4.2-4.8,7.6-10.5,8.2-16.9c0.8-9.4-5.1-18.4-13-23.6c-7.9-5.2-17.4-7.1-26.8-8.3c-16.6-2-33.7-1.7-49.4,4
			c-15.7,5.7-29.7,17.3-35.5,33C1372.8,201.1,1376.7,220.6,1389.9,230.8z"/>
		<path fill="#FFCFE2" d="M1301.8,295.5c12.6-3.3,22.3-13.8,28-25.5c6.1-12.7,6.9-30.4-4.5-38.6c-12.2-8.7-29.4-0.9-40.6,9.2
			c-11.5,10.4-21.5,26.3-15.6,40.6C1274,293.3,1289.3,298.8,1301.8,295.5z"/>
		<path fill="#FFE1CE" d="M634.3,785.7c26.3,5.2,53.5-3.2,77.7-14.8c46.7-22.4,87.3-57.3,116.5-100c5.9-8.6,11.4-17.8,12.8-28.1
			s-2.3-21.9-11.3-27.1c-9.9-5.7-22.7-2.1-32,4.5c-9.3,6.6-16.3,15.9-25.2,23.1c-19.4,15.8-45.5,20.2-70.4,22.2
			c-24.9,1.9-50.6,2-73.9,11.1s-44.3,29.8-44.5,54.8C583.7,758.1,608,780.5,634.3,785.7z"/>
		<path fill="#FFE1CE" d="M896.3,561.3c9.8-3.3,16-12.7,21.5-21.5c26.1-42.1,52.1-84.2,78.2-126.3c4.5-7.2,9.1-15.2,8.1-23.6
			c-1.8-14.3-20.2-21.7-33.7-16.6c-13.5,5.1-22.1,18.3-27.6,31.6c-5.5,13.3-8.8,27.7-16.3,39.9c-7.2,11.7-17.8,20.8-28.2,29.7
			c-10.4,8.9-21.1,17.9-28.4,29.6s-10.9,26.4-6.2,39.2S883.3,565.6,896.3,561.3z"/>
		<path fill="#FFE1CE" d="M1079.7,320.1c14.6-5.6,23.8-19.8,31.1-33.6c5.1-9.6,9.7-19.6,11.2-30.3c1.5-10.7-0.5-22.4-7.7-30.5
			c-6.4-7.4-16.4-11.1-26.1-11.2c-9.8-0.1-19.3,3.1-27.9,7.8c-14.7,8.1-27,21-32.5,36.8s-3.4,34.5,6.9,47.6
			C1045.2,319.7,1064.1,326.1,1079.7,320.1z"/>
	</g>
</g>
</svg>
